<svg width="20" height="13" viewBox="0 0 20 13" fill="none" xmlns="http://www.w3.org/2000/svg">
<path id="Vector" fill-rule="evenodd" clip-rule="evenodd" d="M0.106219 6.60292C0.106219 6.78618 0.1778 6.96194 0.305216 7.09152C0.432633 7.2211 0.605446 7.29391 0.785641 7.29391L16.8105 7.29391L12.5342 11.6416C12.471 11.7058 12.4209 11.7821 12.3867 11.866C12.3526 11.95 12.335 12.0399 12.335 12.1308C12.335 12.2216 12.3526 12.3116 12.3867 12.3956C12.4209 12.4795 12.471 12.5558 12.5342 12.62C12.5974 12.6843 12.6724 12.7352 12.7549 12.77C12.8374 12.8048 12.9259 12.8226 13.0152 12.8226C13.1046 12.8226 13.193 12.8048 13.2756 12.77C13.3581 12.7352 13.4331 12.6843 13.4963 12.62L18.9317 7.09214C18.9949 7.02795 19.0451 6.9517 19.0794 6.86775C19.1136 6.78381 19.1313 6.69381 19.1313 6.60292C19.1313 6.51204 19.1136 6.42204 19.0794 6.33809C19.0451 6.25415 18.9949 6.17789 18.9317 6.11371L13.4963 0.585841C13.4331 0.521596 13.3581 0.470634 13.2756 0.435865C13.193 0.401096 13.1046 0.383201 13.0152 0.383201C12.9259 0.383201 12.8374 0.401096 12.7549 0.435865C12.6724 0.470634 12.5974 0.521596 12.5342 0.585841C12.471 0.650086 12.4209 0.726354 12.3867 0.810295C12.3526 0.894234 12.335 0.9842 12.335 1.07506C12.335 1.16591 12.3526 1.25588 12.3867 1.33982C12.4209 1.42376 12.471 1.50003 12.5342 1.56427L16.8105 5.91194L0.785641 5.91194C0.605446 5.91194 0.432633 5.98474 0.305216 6.11432C0.1778 6.24391 0.106219 6.41966 0.106219 6.60292Z" fill="white"/>
</svg>
