<svg width="20" height="13" viewBox="0 0 20 13" fill="none" xmlns="http://www.w3.org/2000/svg">
<path id="Vector" fill-rule="evenodd" clip-rule="evenodd" d="M19.7478 6.60292C19.7478 6.41966 19.6762 6.2439 19.5488 6.11432C19.4214 5.98473 19.2486 5.91193 19.0684 5.91193L3.04351 5.91193L7.31979 1.56427C7.38296 1.50002 7.43307 1.42375 7.46726 1.33981C7.50145 1.25587 7.51904 1.16591 7.51904 1.07505C7.51904 0.984194 7.50145 0.894228 7.46726 0.810288C7.43307 0.726348 7.38296 0.650078 7.31979 0.585834C7.25662 0.521589 7.18163 0.470627 7.09909 0.435858C7.01656 0.401089 6.9281 0.383194 6.83876 0.383194C6.74943 0.383194 6.66097 0.401089 6.57843 0.435858C6.49589 0.470627 6.4209 0.521589 6.35773 0.585834L0.922353 6.1137C0.859081 6.17789 0.808882 6.25414 0.77463 6.33809C0.740378 6.42203 0.722748 6.51203 0.722748 6.60292C0.722748 6.69381 0.740378 6.7838 0.77463 6.86775C0.808882 6.9517 0.859081 7.02795 0.922353 7.09213L6.35773 12.62C6.4209 12.6842 6.49589 12.7352 6.57843 12.77C6.66097 12.8047 6.74943 12.8226 6.83876 12.8226C6.9281 12.8226 7.01656 12.8047 7.09909 12.77C7.18163 12.7352 7.25662 12.6842 7.31979 12.62C7.38296 12.5558 7.43307 12.4795 7.46726 12.3955C7.50145 12.3116 7.51904 12.2216 7.51904 12.1308C7.51904 12.0399 7.50145 11.95 7.46726 11.866C7.43307 11.7821 7.38296 11.7058 7.31979 11.6416L3.04351 7.2939L19.0684 7.2939C19.2486 7.2939 19.4214 7.2211 19.5488 7.09152C19.6762 6.96193 19.7478 6.78618 19.7478 6.60292Z" fill="white"/>
</svg>
